<svg xmlns="http://www.w3.org/2000/svg" width="120" height="120" viewBox="0 0 120 120">
    <g fill="none" fill-rule="evenodd">
        <circle cx="60" cy="60" r="60" fill="#39CBF5"/>
        <path fill="#FFF" fill-rule="nonzero" d="M53.97 28.022c-.25.057-.501.254-.585.509L42.11 60.3c-.167.48.25 1.076.754 1.076h8.4L41.05 90.854c-.14.34.028.765.307.963.307.17.726.142.977-.113L79.17 51.298c.419-.453.028-1.36-.586-1.36H64.129l9.377-20.811c.224-.481-.224-1.132-.754-1.104H54.139a.17.17 0 0 0-.168-.001zm.699 1.585h16.856l-9.35 20.812c-.194.48.196 1.104.727 1.104h13.87L43.757 87.739l9.377-26.9c.167-.481-.251-1.048-.753-1.075h-8.4l10.688-30.157z"/>
    </g>
</svg>
