<svg xmlns="http://www.w3.org/2000/svg" width="120" height="120" viewBox="0 0 120 120">
    <g fill="none" fill-rule="evenodd">
        <circle cx="60" cy="60" r="60" fill="#39CBF5"/>
        <g fill="#FFF">
            <path d="M48 69.947c0 .176-.061.298-.184.368-.122.07-.271.07-.446 0l-21.002-9.924a.681.681 0 0 1-.368-.63v-1.155c0-.28.123-.49.368-.63l21.002-9.923a.584.584 0 0 1 .262-.053c.245 0 .368.14.368.42v.998c0 .245-.123.437-.368.577L28.31 59.026c-.14.105-.14.21 0 .315l19.322 9.031c.245.14.368.333.368.578v.997zM71 69.947c0 .176.061.298.184.368.122.07.271.07.446 0l21.002-9.924a.681.681 0 0 0 .368-.63v-1.155c0-.28-.123-.49-.368-.63L71.63 48.053a.584.584 0 0 0-.262-.053c-.245 0-.368.14-.368.42v.998c0 .245.123.437.368.577l19.322 9.031c.14.105.14.21 0 .315l-19.322 9.031c-.245.14-.368.333-.368.578v.997zM53.494 78.208c-.178 0-.31-.053-.4-.16-.088-.106-.114-.248-.079-.425l10.897-36.198c.106-.283.319-.425.638-.425h.956c.178 0 .31.053.4.16.088.106.114.248.079.425L55.088 77.783c-.106.283-.319.425-.638.425h-.956z"/>
        </g>
    </g>
</svg>
