<svg xmlns="http://www.w3.org/2000/svg" width="115" height="13" viewBox="0 0 115 13">
    <path fill="#FFF" fill-rule="evenodd" d="M4.441 12.8c-.878 0-1.652-.172-2.32-.515A3.777 3.777 0 0 1 .56 10.823C.187 10.191 0 9.466 0 8.648V.288C0 .206.024.139.072.09A.268.268 0 0 1 .271.018h1.191c.085 0 .15.024.199.072a.268.268 0 0 1 .072.199v8.395c0 .782.25 1.414.75 1.895.499.482 1.152.722 1.958.722.807 0 1.456-.24 1.95-.722.493-.481.74-1.113.74-1.895V.289c0-.084.024-.15.072-.199a.268.268 0 0 1 .199-.072h1.191c.085 0 .15.024.199.072a.268.268 0 0 1 .072.199v8.359c0 .818-.183 1.543-.55 2.175a3.718 3.718 0 0 1-1.553 1.462c-.668.343-1.441.515-2.32.515zm9.785-.145a.268.268 0 0 1-.199-.072.268.268 0 0 1-.072-.198V.289c0-.084.024-.15.072-.199a.268.268 0 0 1 .2-.072h1.19c.085 0 .151.024.2.072a.268.268 0 0 1 .071.199v10.778c0 .06.03.09.09.09h6.12c.085 0 .151.024.2.072a.268.268 0 0 1 .072.199v.957c0 .084-.025.15-.073.198a.268.268 0 0 1-.198.072h-7.673zM33.832.018c.084 0 .15.024.199.072a.268.268 0 0 1 .072.199v.975c0 .084-.024.15-.072.198a.268.268 0 0 1-.199.073h-3.358c-.06 0-.09.03-.09.09v10.76c0 .084-.024.15-.072.198a.268.268 0 0 1-.199.072h-1.191a.268.268 0 0 1-.2-.072.268.268 0 0 1-.071-.198V1.625c0-.06-.03-.09-.09-.09h-3.196a.268.268 0 0 1-.199-.073.268.268 0 0 1-.072-.198V.289c0-.084.024-.15.072-.199a.268.268 0 0 1 .199-.072h8.467zm11.951 12.637a.313.313 0 0 1-.307-.198l-2.49-5.344c-.025-.048-.061-.072-.11-.072h-2.545c-.06 0-.09.03-.09.09v5.254c0 .084-.024.15-.072.198a.268.268 0 0 1-.199.072H38.78a.268.268 0 0 1-.199-.072.268.268 0 0 1-.072-.198V.27c0-.084.024-.15.072-.199A.268.268 0 0 1 38.78 0h4.766c.722 0 1.357.15 1.904.451.548.301.972.722 1.273 1.264.301.542.451 1.168.451 1.878 0 .83-.222 1.537-.668 2.12-.445.585-1.047.979-1.805 1.183-.048.024-.066.06-.054.109l2.564 5.325.036.145c0 .12-.079.18-.235.18h-1.228zM40.331 1.498c-.06 0-.09.03-.09.09v4.009c0 .06.03.09.09.09h2.997c.626 0 1.134-.193 1.526-.578.39-.385.586-.885.586-1.498 0-.638-.192-1.15-.577-1.535-.386-.385-.897-.578-1.535-.578h-2.997zM60.1 12.655c-.157 0-.26-.072-.307-.216l-.632-2.022c-.024-.048-.054-.072-.09-.072h-5.037c-.036 0-.066.024-.09.072l-.632 2.022c-.049.144-.15.216-.307.216h-1.282c-.205 0-.277-.102-.217-.306l3.9-12.114c.048-.145.15-.217.307-.217h1.66c.157 0 .26.072.308.217l3.935 12.114c.012.024.018.06.018.108 0 .132-.078.198-.234.198h-1.3zm-5.687-3.79c-.012.071.012.108.072.108h4.134c.073 0 .097-.037.073-.109L56.597 2.13c-.012-.048-.03-.072-.054-.072s-.042.024-.054.072l-2.076 6.734zm11.843 3.79a.268.268 0 0 1-.199-.072.268.268 0 0 1-.072-.198V.289c0-.084.024-.15.072-.199a.268.268 0 0 1 .199-.072h4.279c1.251 0 2.25.328 2.996.984.747.656 1.12 1.531 1.12 2.627v5.416c0 1.095-.373 1.97-1.12 2.627-.746.655-1.745.983-2.996.983h-4.28zm1.462-1.588c0 .06.03.09.09.09h2.799c.698 0 1.254-.214 1.67-.64.415-.428.629-1.003.64-1.725v-4.91c0-.723-.207-1.297-.622-1.725-.415-.427-.978-.64-1.688-.64h-2.799c-.06 0-.09.03-.09.09v9.46zm18.902 1.588c-.156 0-.259-.072-.307-.216l-.632-2.022c-.024-.048-.054-.072-.09-.072h-5.037c-.036 0-.066.024-.09.072l-.632 2.022c-.048.144-.15.216-.307.216h-1.282c-.204 0-.276-.102-.216-.306l3.9-12.114c.047-.145.15-.217.306-.217h1.661c.156 0 .259.072.307.217l3.936 12.114c.012.024.018.06.018.108 0 .132-.079.198-.235.198h-1.3zm-5.687-3.79c-.012.071.012.108.072.108h4.135c.072 0 .096-.037.072-.109L83.118 2.13c-.012-.048-.03-.072-.054-.072s-.043.024-.055.072l-2.076 6.734zm18.848 3.79a.313.313 0 0 1-.307-.198l-2.491-5.344c-.024-.048-.06-.072-.109-.072H94.33c-.06 0-.09.03-.09.09v5.254c0 .084-.024.15-.073.198a.268.268 0 0 1-.198.072h-1.192a.268.268 0 0 1-.198-.072.268.268 0 0 1-.073-.198V.27c0-.084.025-.15.073-.199A.268.268 0 0 1 92.776 0h4.766c.723 0 1.357.15 1.905.451.548.301.972.722 1.273 1.264.3.542.451 1.168.451 1.878 0 .83-.223 1.537-.668 2.12-.445.585-1.047.979-1.805 1.183-.048.024-.066.06-.054.109l2.563 5.325.036.145c0 .12-.078.18-.234.18H99.78zM94.329 1.498c-.06 0-.09.03-.09.09v4.009c0 .06.03.09.09.09h2.997c.626 0 1.134-.193 1.525-.578.391-.385.587-.885.587-1.498 0-.638-.193-1.15-.578-1.535-.385-.385-.896-.578-1.534-.578h-2.997zm11.77 11.157a.268.268 0 0 1-.198-.072.268.268 0 0 1-.072-.198V.289c0-.084.024-.15.072-.199a.268.268 0 0 1 .199-.072h1.191c.084 0 .15.024.199.072a.268.268 0 0 1 .072.199v5.633c0 .036.012.06.036.072.024.012.048 0 .072-.036l5.11-5.796a.412.412 0 0 1 .324-.144h1.354c.145 0 .217.048.217.144a.29.29 0 0 1-.072.181l-4.17 4.965c-.037.048-.043.09-.019.126l4.532 6.896a.264.264 0 0 1 .054.163c0 .108-.078.162-.235.162h-1.354a.355.355 0 0 1-.325-.18l-3.863-5.813c-.048-.073-.09-.079-.126-.018l-1.499 1.66a.29.29 0 0 0-.036.127v3.954c0 .084-.024.15-.072.198a.268.268 0 0 1-.199.072H106.1z"/>
</svg>
